<svg width="24" height="24" viewBox="0 0 24 24" fill="none" xmlns="http://www.w3.org/2000/svg">
<path d="M6.9 20.5998C8.4 21.4998 10.2 21.9998 12 21.9998C17.5 21.9998 22 17.4998 22 11.9998C22 6.49976 17.5 1.99976 12 1.99976C6.5 1.99976 2 6.49976 2 11.9998C2 13.7998 2.5 15.4998 3.3 16.9998L2.44044 20.3057C2.24572 21.0547 2.93892 21.7315 3.68299 21.5189L6.9 20.5998Z" stroke="white" stroke-width="1.5" stroke-miterlimit="10" stroke-linecap="round" stroke-linejoin="round"/>
<path d="M16.5 14.8483C16.5 15.0103 16.4639 15.1768 16.3873 15.3388C16.3107 15.5008 16.2116 15.6538 16.0809 15.7978C15.86 16.0408 15.6167 16.2163 15.3418 16.3288C15.0714 16.4413 14.7784 16.4998 14.4629 16.4998C14.0033 16.4998 13.512 16.3918 12.9937 16.1713C12.4755 15.9508 11.9572 15.6538 11.4434 15.2803C10.9251 14.9023 10.4339 14.4838 9.9652 14.0203C9.501 13.5523 9.08187 13.0618 8.70781 12.5488C8.33826 12.0358 8.04081 11.5228 7.82449 11.0143C7.60816 10.5013 7.5 10.0108 7.5 9.54276C7.5 9.23676 7.55408 8.94426 7.66224 8.67426C7.77041 8.39976 7.94166 8.14776 8.18052 7.92276C8.46895 7.63926 8.78443 7.49976 9.11793 7.49976C9.24412 7.49976 9.37031 7.52676 9.48297 7.58076C9.60015 7.63476 9.70381 7.71576 9.78493 7.83276L10.8305 9.30426C10.9116 9.41676 10.9702 9.52026 11.0108 9.61926C11.0513 9.71376 11.0739 9.80826 11.0739 9.89376C11.0739 10.0018 11.0423 10.1098 10.9792 10.2133C10.9206 10.3168 10.835 10.4248 10.7268 10.5328L10.3843 10.8883C10.3348 10.9378 10.3122 10.9963 10.3122 11.0683C10.3122 11.1043 10.3167 11.1358 10.3257 11.1718C10.3393 11.2078 10.3528 11.2348 10.3618 11.2618C10.4429 11.4103 10.5826 11.6038 10.7809 11.8378C10.9837 12.0718 11.2 12.3103 11.4344 12.5488C11.6778 12.7873 11.9121 13.0078 12.151 13.2103C12.3853 13.4083 12.5791 13.5433 12.7323 13.6243C12.7549 13.6333 12.7819 13.6468 12.8135 13.6603C12.8495 13.6738 12.8856 13.6783 12.9261 13.6783C13.0028 13.6783 13.0613 13.6513 13.1109 13.6018L13.4534 13.2643C13.5661 13.1518 13.6743 13.0663 13.7779 13.0123C13.8816 12.9493 13.9852 12.9178 14.0979 12.9178C14.1835 12.9178 14.2737 12.9358 14.3728 12.9763C14.472 13.0168 14.5756 13.0753 14.6883 13.1518L16.18 14.2093C16.2972 14.2903 16.3783 14.3848 16.4279 14.4973C16.473 14.6098 16.5 14.7223 16.5 14.8483Z" stroke="white" stroke-width="1.5" stroke-miterlimit="10"/>
</svg>
